<svg width="167" height="20" fill="none" xmlns="http://www.w3.org/2000/svg"><mask id="a" maskUnits="userSpaceOnUse" x="0" y="0" width="167" height="20"><g clip-path="url(#clip0)" fill="#224697" stroke="#224697" stroke-dasharray="700 700"><path d="M140.974 16.857l-1.824-2.896c2.167-1.187 3.333-3.288 3.333-5.931 0-4.069-2.792-7.195-7.748-7.195h-7.833v.421c.249.05.478.17.662.345a.92.92 0 01.184.6V17.8a.92.92 0 01-.184.6 1.354 1.354 0 01-.662.345v.421h6.609v-.424a1.326 1.326 0 01-.659-.346.853.853 0 01-.183-.565v-2.871h1.841l1.789 2.919c.07.12.116.252.136.39 0 .245-.226.404-.673.473v.42h7.459v-.42a1.738 1.738 0 01-1.04-.415 9.87 9.87 0 01-1.207-1.47zm-6.485-5.815h-1.813V4.986h1.813c2.223 0 3.035 1.267 3.035 3.044 0 1.777-.812 3.012-3.035 3.012zM159.666.835v.421c.447.07.672.228.672.473a.807.807 0 01-.1.293L156.746 8.3l-3.024-5.425c-.347-.62-.562-.986-.562-1.145 0-.245.225-.404.673-.473v-.42h-7.591v.42c.383.02.749.165 1.04.414.487.494.925 1.033 1.307 1.612l5.608 9.548v5.079a.847.847 0 01-.177.49 1.336 1.336 0 01-.662.345v.421h6.616v-.424a1.337 1.337 0 01-.662-.346.92.92 0 01-.184-.617v-5.083l5.511-9.41c.383-.58.822-1.12 1.31-1.615a1.74 1.74 0 011.041-.414v-.42h-7.324zM79.448 14.855a.915.915 0 01-.593.183h-6.468V2.095a.815.815 0 01.177-.497c.182-.176.41-.296.659-.345V.835H66.61v.421c.248.05.477.17.659.345a.908.908 0 01.187.618v16.943h11.402c.212-.01.42.055.59.182.173.183.293.41.347.656h.423v-5.8h-.424a1.378 1.378 0 01-.346.655zM97.66 14.855a.9.9 0 01-.592.183H90.6V2.136a.85.85 0 01.18-.538c.184-.176.414-.295.663-.345V.835h-6.617v.421c.249.05.478.17.66.345a.883.883 0 01.17.597v16.963H97.06a.912.912 0 01.586.183c.175.182.296.41.347.656h.423v-5.8h-.423a1.312 1.312 0 01-.333.655zM13.906.66a.804.804 0 01-.486.175H1.26A.81.81 0 01.773.66 1.444 1.444 0 01.423 0H0v5.8h.423C.48 5.555.6 5.327.77 5.139a.89.89 0 01.617-.18h3.489v12.91a.857.857 0 01-.18.53 1.338 1.338 0 01-.663.346v.42h6.617v-.424a1.323 1.323 0 01-.66-.345.915.915 0 01-.186-.607V4.958h3.509a.88.88 0 01.593.18c.172.187.291.415.347.663h.423V0h-.42a1.413 1.413 0 01-.35.66zM39.644.839v.42c.25.05.48.17.662.346a.539.539 0 01.184.586l-2.774 7.247-4.13-8.955c-.056-.134-.163-.134-.219 0l-3.953 8.948-2.903-7.247a.604.604 0 01.191-.583c.182-.175.41-.295.659-.345V.84h-7.248v.417c.35.05.674.216.92.47.193.253.35.531.467.828l7.005 16.825c.08.186.243.186.326 0l4.564-9.838L38 19.38c.108.214.243.214.323 0l6.7-16.322c0-.034.027-.065.038-.096l.093-.231c.138-.361.328-.7.566-1.005.242-.25.56-.414.905-.465V.835l-6.98.004zM52.399.835v.421c.25.05.479.17.662.345a.908.908 0 01.184.57V17.83a.908.908 0 01-.184.569 1.337 1.337 0 01-.662.345v.421h6.617v-.424a1.324 1.324 0 01-.66-.346.867.867 0 01-.183-.569V2.167a.867.867 0 01.184-.57c.181-.175.41-.295.659-.344V.835h-6.617zM112.032.618c-5.31 0-9.887 3.868-9.887 9.389 0 5.521 4.577 9.406 9.887 9.406 5.309 0 9.886-3.885 9.886-9.406 0-5.521-4.577-9.39-9.886-9.39zm0 14.527c-3.087 0-4.855-2.264-4.855-5.148 0-2.885 1.761-5.121 4.855-5.121 3.093 0 4.834 2.24 4.834 5.13 0 2.893-1.734 5.139-4.834 5.139z"/></g></mask><g mask="url(#a)"><path fill="#6C757D" d="M-43-15h220v57H-43z"/></g><defs><clipPath id="clip0"><path fill="#fff" d="M0 0h167v20H0z"/></clipPath></defs></svg>