<svg width="14" height="14" fill="none" xmlns="http://www.w3.org/2000/svg"><path d="M9.552 1.896a2.56 2.56 0 012.552 2.552v5.104a2.56 2.56 0 01-2.552 2.552H4.448a2.56 2.56 0 01-2.552-2.552V4.448a2.56 2.56 0 012.552-2.552h5.104zm0-1.021H4.448A3.583 3.583 0 00.875 4.448v5.104a3.583 3.583 0 003.573 3.573h5.104a3.583 3.583 0 003.573-3.573V4.448A3.583 3.583 0 009.552.875z" fill="#ADB5BD"/><path d="M10.318 4.448a.766.766 0 110-1.531.766.766 0 010 1.531zM7 4.958a2.042 2.042 0 110 4.084 2.042 2.042 0 010-4.084zm0-1.02a3.062 3.062 0 100 6.124 3.062 3.062 0 000-6.124z" fill="#ADB5BD"/></svg>