<svg width="231" height="28" fill="none" xmlns="http://www.w3.org/2000/svg"><g clip-path="url(#clip0)" fill="#224697" stroke="#224697" stroke-dasharray="700 700"><path d="M195 23.599l-2.523-4.053c2.998-1.662 4.609-4.604 4.609-8.304 0-5.696-3.861-10.073-10.716-10.073h-10.836v.59c.345.07.662.238.917.483.179.241.269.539.254.84v21.836c.015.301-.075.599-.254.84a1.869 1.869 0 01-.917.483v.59h9.143v-.594a1.822 1.822 0 01-.911-.483 1.205 1.205 0 01-.254-.793v-4.019h2.547l2.475 4.087c.096.168.16.354.187.546 0 .343-.312.565-.931.662v.59h10.318v-.59a2.39 2.39 0 01-1.439-.58c-.621-.63-1.18-1.32-1.669-2.058zm-8.97-8.14h-2.509V6.98h2.509c3.075 0 4.197 1.773 4.197 4.26 0 2.489-1.122 4.218-4.197 4.218zM220.855 1.17v.588c.619.097.93.32.93.662a1.15 1.15 0 01-.139.41l-4.83 8.788-4.183-7.594c-.48-.87-.777-1.381-.777-1.604 0-.343.312-.565.931-.662V1.17h-10.501v.59a2.385 2.385 0 011.439.58 14.86 14.86 0 011.809 2.255l7.756 13.367v7.112a1.19 1.19 0 01-.244.685 1.845 1.845 0 01-.917.483v.59h9.153v-.594a1.84 1.84 0 01-.916-.483 1.295 1.295 0 01-.255-.865v-7.116l7.622-13.174a14.997 14.997 0 011.814-2.26 2.388 2.388 0 011.439-.58v-.59h-10.131zM109.895 20.797c-.235.18-.526.27-.82.256h-8.946V2.933c.003-.253.089-.498.244-.696.252-.246.568-.414.912-.483v-.585h-9.148v.59c.344.07.66.237.912.483.188.246.28.554.259.864v23.72h15.772c.293-.013.581.078.815.256.24.256.406.574.48.918h.585v-8.12h-.585c-.074.344-.24.66-.48.917zM135.088 20.797c-.235.18-.526.272-.821.256h-8.946V2.99a1.205 1.205 0 01.25-.753 1.84 1.84 0 01.916-.483v-.585h-9.152v.59c.343.07.66.237.911.483.176.24.259.537.235.835v23.75h15.777c.291-.013.578.078.811.255.242.254.409.572.479.918h.585v-8.12h-.585a1.846 1.846 0 01-.46.917zM19.235.923c-.19.154-.427.24-.671.246H1.74A1.113 1.113 0 011.07.923 2.029 2.029 0 01.585 0H0v8.12h.585c.079-.345.244-.664.48-.927.243-.188.548-.278.854-.251h4.825v18.073c.002.269-.086.53-.25.744a1.842 1.842 0 01-.915.482v.59h9.152v-.594a1.823 1.823 0 01-.911-.483 1.291 1.291 0 01-.26-.85V6.941h4.855c.295-.02.586.07.82.251.238.262.403.582.48.928h.585V0h-.58a1.986 1.986 0 01-.485.923zM54.837 1.174v.59c.345.07.663.237.916.482a.754.754 0 01.255.822L52.17 13.213 46.457.676c-.077-.188-.225-.188-.302 0l-5.468 12.527-4.015-10.145a.857.857 0 01.264-.816c.251-.246.567-.414.91-.484v-.584H27.823v.584c.484.071.931.303 1.27.657.269.355.486.745.648 1.16l9.69 23.555c.11.261.336.261.45 0l6.313-13.772 6.37 13.772c.15.3.336.3.447 0l9.267-22.85c0-.048.038-.092.053-.135l.13-.324a5.45 5.45 0 01.781-1.406c.335-.35.775-.58 1.252-.652V1.17l-9.656.005zM72.48 1.17v.588c.345.07.662.238.916.484.171.229.26.51.254.797V24.96c.007.287-.083.568-.254.797a1.841 1.841 0 01-.916.483v.59h9.152v-.594a1.823 1.823 0 01-.911-.483 1.223 1.223 0 01-.255-.798V3.034c-.011-.288.079-.57.255-.797.251-.246.567-.414.911-.483v-.585H72.48zM154.966.865c-7.344 0-13.676 5.415-13.676 13.145 0 7.73 6.332 13.169 13.676 13.169s13.675-5.44 13.675-13.17c0-7.729-6.331-13.144-13.675-13.144zm0 20.338c-4.269 0-6.716-3.17-6.716-7.208s2.437-7.169 6.716-7.169 6.687 3.135 6.687 7.184c0 4.048-2.399 7.193-6.687 7.193z"/></g><defs><clipPath id="clip0"><path fill="#fff" d="M0 0h231v28H0z"/></clipPath></defs></svg>