<svg width="90" height="91" fill="none" xmlns="http://www.w3.org/2000/svg"><circle cx="45" cy="46" r="44.75" stroke="#E1E5EE" stroke-width=".5"/><path d="M35.66 37.8c-1.792 0-3.304.616-4.536 1.848-1.232 1.288-1.848 3.108-1.848 5.46 0 3.08.784 5.908 2.352 8.484 1.568 2.632 3.584 4.704 6.048 6.216l2.436-1.26c-1.008-.896-2.016-2.184-3.024-3.864-1.008-1.68-1.568-3.472-1.68-5.376 1.68-.112 3.08-.672 4.2-1.68s1.68-2.296 1.68-3.864c0-1.792-.56-3.248-1.68-4.368-1.064-1.064-2.38-1.596-3.948-1.596zm17.556 0c-1.736 0-3.22.616-4.452 1.848-1.232 1.288-1.848 3.108-1.848 5.46 0 3.08.756 5.908 2.268 8.484 1.568 2.632 3.584 4.704 6.048 6.216l2.436-1.26c-2.856-2.576-4.396-5.656-4.62-9.24 1.624-.112 2.996-.672 4.116-1.68 1.176-1.008 1.764-2.296 1.764-3.864 0-1.792-.56-3.248-1.68-4.368-1.12-1.064-2.464-1.596-4.032-1.596z" fill="#6A6C77"/></svg>