<svg width="14" height="14" viewBox="0 0 14 14" fill="none" xmlns="http://www.w3.org/2000/svg">
<g clip-path="url(#clip0)">
<path d="M12.5613 4.14895C12.5704 4.2733 12.5704 4.39766 12.5704 4.52283C12.5704 8.31519 9.68306 12.6857 4.40671 12.6857C2.78106 12.6857 1.27071 12.2146 0 11.3977C0.231412 11.424 0.453765 11.4322 0.693412 11.4322C2.03494 11.4322 3.26859 10.9793 4.25518 10.2068C2.99353 10.1805 1.93694 9.35366 1.57294 8.21636C1.75 8.24272 1.92788 8.26083 2.11318 8.26083C2.37176 8.26083 2.62953 8.22542 2.86918 8.16366C1.55482 7.89683 0.568235 6.74224 0.568235 5.34801C0.568235 5.33895 0.568235 5.32083 0.568235 5.3126C0.950353 5.52507 1.39424 5.65848 1.86529 5.6766C1.09282 5.16107 0.586353 4.28154 0.586353 3.28754C0.586353 2.75471 0.728824 2.26554 0.977529 1.83895C2.38988 3.58071 4.51294 4.71801 6.89376 4.84154C6.84847 4.62824 6.82212 4.40589 6.82212 4.18354C6.82212 2.60319 8.10188 1.31519 9.69129 1.31519C10.5173 1.31519 11.2634 1.66107 11.788 2.22107C12.4361 2.09671 13.0571 1.85707 13.6088 1.52848C13.3955 2.19471 12.9426 2.75471 12.3472 3.10883C12.9253 3.04707 13.4845 2.8873 14 2.66495C13.6088 3.23319 13.1205 3.74048 12.5613 4.14895Z" fill="#ADB5BD"/>
</g>
<defs>
<clipPath id="clip0">
<rect width="14" height="14" fill="white"/>
</clipPath>
</defs>
</svg>
